<svg xmlns="http://www.w3.org/2000/svg" viewBox="0 0 1024 1024" fill="#000">
    <path d="M64 64h256v224c0 17.673-14.327 32-32 32h-224v-256z"/>
    <path d="M704 64h256v256h-224c-17.673 0-32-14.327-32-32v-224z"/>
    <path d="M384 64h256v224c0 17.673-14.327 32-32 32h-192c-17.673 0-32-14.327-32-32v-224z"/>
    <path d="M64 384h224c17.673 0 32 14.327 32 32v192c0 17.673-14.327 32-32 32h-224v-256z"/>
    <path d="M736 384h224v256h-224c-17.673 0-32-14.327-32-32v-192c0-17.673 14.327-32 32-32z"/>
    <path d="M416 384h192c17.673 0 32 14.327 32 32v192c0 17.673-14.327 32-32 32h-192c-17.673 0-32-14.327-32-32v-192c0-17.673 14.327-32 32-32z"/>
    <path d="M64 704h224c17.673 0 32 14.327 32 32v224h-256v-256z"/>
    <path d="M736 704h224v256h-256v-224c0-17.673 14.327-32 32-32z"/>
    <path d="M416 704h192c17.673 0 32 14.327 32 32v224h-256v-224c0-17.673 14.327-32 32-32z"/>
</svg>

