<svg xmlns="http://www.w3.org/2000/svg" viewBox="0 0 1024 1024">
<path d="M320 288v-224h-256v256h224c17.673 0 32-14.327 32-32z"/>
<path d="M764.92 128.92l130.16 130.16c10.92 10.92 12.72 26.88 4 35.6l-25.32 25.32h86.24v-256h-256v86.24l25.32-25.32c8.72-8.92 24.64-6.96 35.6 4z"/>
<path d="M640 64h-256v224c0 17.673 14.327 32 32 32h118.24l105.76-105.76z"/>
<path d="M320 534.24v-118.24c0-17.673-14.327-32-32-32h-224v256h156.48l3.56-9.84z"/>
<path d="M704 608c0 17.673 14.327 32 32 32h224v-256h-150.24l-105.76 105.76z"/>
<path d="M416 384c-17.673 0-32 14.327-32 32v54.24l86.24-86.24z"/>
<path d="M608 640c17.673 0 32-14.327 32-32v-54.24l-86.24 86.24z"/>
<path d="M197.24 704h-133.24v256h256v-133.24l-192.76 70z"/>
<path d="M704 736v224h256v-256h-224c-17.673 0-32 14.327-32 32z"/>
<path d="M384 803.52v156.48h256v-224c0-17.673-14.327-32-32-32h-118.24l-96 96z"/>
<path d="M330.64 748.52c-25.628-9.664-45.496-29.532-54.947-54.518l434.027-434.882 55.16 55.16z"/>
<path d="M366.6 784.48q-21.8 2.36-19.4-19.4l434.24-434.24 19.4 19.4z"/>
<path d="M258.96 676.8q-21.8 2.36-19.4-19.4l434.2-434.24 19.4 19.4z"/>
</svg>
