<svg xmlns="http://www.w3.org/2000/svg" viewBox="0 0 1024 1024">
<path d="M156 206.4c47.489-24.267 102.594-42.693 160.656-52.379l3.344-90.021h-256v213.12c25.958-28.199 56.355-51.808 90.179-69.834z"/>
<path d="M960 277.12v-213.12h-256v89.56c61.406 10.147 116.511 28.573 167.258 54.341 32.386 17.411 62.784 41.020 88.525 68.981z"/>
<path d="M506.52 144h10.96c43.64 0 83.6 0 122.52 2.56v-82.56h-256v82.56c38.92-2.56 78.92-2.56 122.52-2.56z"/>
<path d="M506.52 615.28c-34.84 0-69.4 9.2-104 21.72 3.95 1.887 8.585 2.992 13.477 3l192.003 0c4.881-0.014 9.502-1.119 13.634-3.083-34.794-12.437-69.354-21.637-104.194-21.637z"/>
<path d="M288 704h-224v256h256v-224c0-17.673-14.327-32-32-32z"/>
<path d="M704 736v224h256v-256h-224c-17.673 0-32 14.327-32 32z"/>
<path d="M608 704h-192c-17.673 0-32 14.327-32 32v224h256v-224c0-17.673-14.327-32-32-32z"/>
<path d="M956.76 426.16c-4.2-56.68-26.56-127.56-136.2-181.24-112.24-48.92-196.24-48.92-307.040-48.92h-3.040c-110.8 0-194.8 0-307.040 49-109.64 53.72-132 124.56-136.2 181.24-4.92 66.28 71.56 225.84 189.68 208 86.44-12.92 169.040-68.32 253.6-68.32s170.16 55.4 256.6 68.32c118.080 17.76 194.56-141.8 189.64-208.080zM467.72 465.84l-26.56 26.56-50.8-50.72-50.72 50.76-24.84-24.84 50.72-50.8-50.76-50.76 26.56-26.56 50.68 50.76 50.76-50.76 24.88 24.88-50.76 50.76zM690.32 509.56h-51.44l-60-133.56-12.36-28.8v162.56h-38.52v-224h52l61.12 134.24 10.8 26.24v-160.76h38.4z"/>
</svg>


       

