<svg xmlns="http://www.w3.org/2000/svg" viewBox="0 0 1024 1024">
  <path d="M64 64h176v160c0 8.837-7.163 16-16 16h-160v-176z"/>
  <path d="M784 64h176v176h-160c-8.837 0-16-7.163-16-16v-160z"/>
  <path d="M544 64h176v160c0 8.837-7.163 16-16 16h-144c-8.837 0-16-7.163-16-16v-160z"/>
  <path d="M304 64h176v160c0 8.837-7.163 16-16 16h-144c-8.837 0-16-7.163-16-16v-160z"/>
  <path d="M64 304h160c8.837 0 16 7.163 16 16v144c0 8.837-7.163 16-16 16h-160v-176z"/>
  <path d="M800 304h160v176h-160c-8.837 0-16-7.163-16-16v-144c0-8.837 7.163-16 16-16z"/>
  <path d="M560 304h144c8.837 0 16 7.163 16 16v144c0 8.837-7.163 16-16 16h-144c-8.837 0-16-7.163-16-16v-144c0-8.837 7.163-16 16-16z"/>
  <path d="M320 304h144c8.837 0 16 7.163 16 16v144c0 8.837-7.163 16-16 16h-144c-8.837 0-16-7.163-16-16v-144c0-8.837 7.163-16 16-16z"/>
  <path d="M64 544h160c8.837 0 16 7.163 16 16v144c0 8.837-7.163 16-16 16h-160v-176z"/>
  <path d="M800 544h160v176h-160c-8.837 0-16-7.163-16-16v-144c0-8.837 7.163-16 16-16z"/>
  <path d="M560 544h144c8.837 0 16 7.163 16 16v144c0 8.837-7.163 16-16 16h-144c-8.837 0-16-7.163-16-16v-144c0-8.837 7.163-16 16-16z"/>
  <path d="M320 544h144c8.837 0 16 7.163 16 16v144c0 8.837-7.163 16-16 16h-144c-8.837 0-16-7.163-16-16v-144c0-8.837 7.163-16 16-16z"/>
  <path d="M64 784h160c8.837 0 16 7.163 16 16v160h-176v-176z"/>
  <path d="M800 784h160v176h-176v-160c0-8.837 7.163-16 16-16z"/>
  <path d="M560 784h144c8.837 0 16 7.163 16 16v160h-176v-160c0-8.837 7.163-16 16-16z"/>
  <path d="M320 784h144c8.837 0 16 7.163 16 16v160h-176v-160c0-8.837 7.163-16 16-16z"/>
</svg>

