<svg xmlns="http://www.w3.org/2000/svg" viewBox="0 0 1024 1024">
  <path d="M64 64h128v112c0 8.837-7.163 16-16 16h-112v-128z"/>
<path d="M640 64h128v112c0 8.837-7.163 16-16 16h-96c-8.837 0-16-7.163-16-16v-112z"/>
<path d="M832 64h128v128h-112c-8.837 0-16-7.163-16-16v-112z"/>
<path d="M448 64h128v112c0 8.837-7.163 16-16 16h-96c-8.837 0-16-7.163-16-16v-112z"/>
<path d="M256 64h128v112c0 8.837-7.163 16-16 16h-96c-8.837 0-16-7.163-16-16v-112z"/>
<path d="M64 256h112c8.837 0 16 7.163 16 16v96c0 8.837-7.163 16-16 16h-112v-128z"/>
<path d="M656 256h96c8.837 0 16 7.163 16 16v96c0 8.837-7.163 16-16 16h-96c-8.837 0-16-7.163-16-16v-96c0-8.837 7.163-16 16-16z"/>
<path d="M848 256h112v128h-112c-8.837 0-16-7.163-16-16v-96c0-8.837 7.163-16 16-16z"/>
<path d="M464 256h96c8.837 0 16 7.163 16 16v96c0 8.837-7.163 16-16 16h-96c-8.837 0-16-7.163-16-16v-96c0-8.837 7.163-16 16-16z"/>
<path d="M272 256h96c8.837 0 16 7.163 16 16v96c0 8.837-7.163 16-16 16h-96c-8.837 0-16-7.163-16-16v-96c0-8.837 7.163-16 16-16z"/>
<path d="M64 448h112c8.837 0 16 7.163 16 16v96c0 8.837-7.163 16-16 16h-112v-128z"/>
<path d="M656 448h96c8.837 0 16 7.163 16 16v96c0 8.837-7.163 16-16 16h-96c-8.837 0-16-7.163-16-16v-96c0-8.837 7.163-16 16-16z"/>
<path d="M848 448h112v128h-112c-8.837 0-16-7.163-16-16v-96c0-8.837 7.163-16 16-16z"/>
<path d="M464 448h96c8.837 0 16 7.163 16 16v96c0 8.837-7.163 16-16 16h-96c-8.837 0-16-7.163-16-16v-96c0-8.837 7.163-16 16-16z"/>
<path d="M272 448h96c8.837 0 16 7.163 16 16v96c0 8.837-7.163 16-16 16h-96c-8.837 0-16-7.163-16-16v-96c0-8.837 7.163-16 16-16z"/>
<path d="M64 640h112c8.837 0 16 7.163 16 16v96c0 8.837-7.163 16-16 16h-112v-128z"/>
<path d="M656 640h96c8.837 0 16 7.163 16 16v96c0 8.837-7.163 16-16 16h-96c-8.837 0-16-7.163-16-16v-96c0-8.837 7.163-16 16-16z"/>
<path d="M848 640h112v128h-112c-8.837 0-16-7.163-16-16v-96c0-8.837 7.163-16 16-16z"/>
<path d="M464 640h96c8.837 0 16 7.163 16 16v96c0 8.837-7.163 16-16 16h-96c-8.837 0-16-7.163-16-16v-96c0-8.837 7.163-16 16-16z"/>
<path d="M272 640h96c8.837 0 16 7.163 16 16v96c0 8.837-7.163 16-16 16h-96c-8.837 0-16-7.163-16-16v-96c0-8.837 7.163-16 16-16z"/>
<path d="M64 832h112c8.837 0 16 7.163 16 16v112h-128v-128z"/>
<path d="M656 832h96c8.837 0 16 7.163 16 16v112h-128v-112c0-8.837 7.163-16 16-16z"/>
<path d="M848 832h112v128h-128v-112c0-8.837 7.163-16 16-16z"/>
<path d="M464 832h96c8.837 0 16 7.163 16 16v112h-128v-112c0-8.837 7.163-16 16-16z"/>
<path d="M272 832h96c8.837 0 16 7.163 16 16v112h-128v-112c0-8.837 7.163-16 16-16z"/>
</svg>

