<svg xmlns="http://www.w3.org/2000/svg" viewBox="0 0 1024 1024">
 <path d="M192 176v-112h-128v128h112c8.837 0 16-7.163 16-16z"/>
<path d="M768 64h-128v82.56c46.665 2.674 90.39 10.213 132.257 22.159z"/>
<path d="M848 192h112v-128h-128v112c0 8.837 7.163 16 16 16z"/>
<path d="M506.52 144h10.96c20.2 0 39.64 0 58.52 0.24v-80.24h-128v80.24c18.92-0.24 38.32-0.24 58.52-0.24z"/>
<path d="M384 64h-128v103.68c37.61-10.907 81.335-18.446 126.384-21.046z"/>
<path d="M84.96 256h-20.96v21.12c6.71-7.495 13.551-14.387 20.73-20.914z"/>
<path d="M960 277.12v-21.12h-20.96c7.409 6.733 14.25 13.625 20.724 20.852z"/>
<path d="M78.2 640h-14.2v128h112c8.837 0 16-7.163 16-16v-48c-44.64-1.64-83.2-27.76-113.8-64z"/>
<path d="M640 656v96c0 8.837 7.163 16 16 16h96c8.837 0 16-7.163 16-16v-58.88c-41.8-12.24-82.96-31.36-124-47.6-2.461 2.781-3.973 6.451-4 10.474z"/>
<path d="M832 704v48c0 8.837 7.163 16 16 16h112v-128h-14.2c-30.6 36.24-69.16 62.36-113.8 64z"/>
<path d="M464 640h96c8.837 0 16 7.163 16 16v96c0 8.837-7.163 16-16 16h-96c-8.837 0-16-7.163-16-16v-96c0-8.837 7.163-16 16-16z"/>
<path d="M256 752c0 8.837 7.163 16 16 16h96c8.837 0 16-7.163 16-16v-96c-0.037-4.014-1.547-7.669-4.015-10.457-41.025 16.257-82.185 35.337-123.985 47.617z"/>
<path d="M176 832h-112v128h128v-112c0-8.837-7.163-16-16-16z"/>
<path d="M752 832h-96c-8.837 0-16 7.163-16 16v112h128v-112c0-8.837-7.163-16-16-16z"/>
<path d="M832 848v112h128v-128h-112c-8.837 0-16 7.163-16 16z"/>
<path d="M560 832h-96c-8.837 0-16 7.163-16 16v112h128v-112c0-8.837-7.163-16-16-16z"/>
<path d="M368 832h-96c-8.837 0-16 7.163-16 16v112h128v-112c0-8.837-7.163-16-16-16z"/>
<path d="M510.48 566c-84.52 0-167.16 55.4-253.6 68.32-118.12 17.68-194.6-141.88-189.68-208 4.2-56.68 26.56-127.56 136.2-181.24 112.28-49.080 196.28-49.080 307.080-49.080h3.040c110.8 0 194.8 0 307.040 49 109.64 53.72 132 124.56 136.2 181.24 4.92 66.28-71.56 225.84-189.68 208-86.44-12.92-172-68.32-256.6-68.32z"/>
</svg>


