<svg xmlns="http://www.w3.org/2000/svg" viewBox="0 0 1024 1024">
  <path d="M48 48h120v108c0 8.837-7.163 16-16 16h-104v-124z"/>
  <path d="M536 48h112v108c0 8.837-7.163 16-16 16h-80c-8.837 0-16-7.163-16-16v-108z"/>
  <path d="M696 48h112v108c0 8.837-7.163 16-16 16h-80c-8.837 0-16-7.163-16-16v-108z"/>
  <path d="M856 48h120v124h-104c-8.837 0-16-7.163-16-16v-108z"/>
  <path d="M376 48h112v108c0 8.837-7.163 16-16 16h-80c-8.837 0-16-7.163-16-16v-108z"/>
  <path d="M216 48h112v108c0 8.837-7.163 16-16 16h-80c-8.837 0-16-7.163-16-16v-108z"/>
  <path d="M48 216h104c8.837 0 16 7.163 16 16v80c0 8.837-7.163 16-16 16h-104v-112z"/>
  <path d="M552 216h80c8.837 0 16 7.163 16 16v80c0 8.837-7.163 16-16 16h-80c-8.837 0-16-7.163-16-16v-80c0-8.837 7.163-16 16-16z"/>
  <path d="M712 216h80c8.837 0 16 7.163 16 16v80c0 8.837-7.163 16-16 16h-80c-8.837 0-16-7.163-16-16v-80c0-8.837 7.163-16 16-16z"/>
  <path d="M872 216h104v112h-104c-8.837 0-16-7.163-16-16v-80c0-8.837 7.163-16 16-16z"/>
  <path d="M392 216h80c8.837 0 16 7.163 16 16v80c0 8.837-7.163 16-16 16h-80c-8.837 0-16-7.163-16-16v-80c0-8.837 7.163-16 16-16z"/>
  <path d="M232 216h80c8.837 0 16 7.163 16 16v80c0 8.837-7.163 16-16 16h-80c-8.837 0-16-7.163-16-16v-80c0-8.837 7.163-16 16-16z"/>
  <path d="M48 376h104c8.837 0 16 7.163 16 16v80c0 8.837-7.163 16-16 16h-104v-112z"/>
  <path d="M552 376h80c8.837 0 16 7.163 16 16v80c0 8.837-7.163 16-16 16h-80c-8.837 0-16-7.163-16-16v-80c0-8.837 7.163-16 16-16z"/>
  <path d="M712 376h80c8.837 0 16 7.163 16 16v80c0 8.837-7.163 16-16 16h-80c-8.837 0-16-7.163-16-16v-80c0-8.837 7.163-16 16-16z"/>
  <path d="M872 376h104v112h-104c-8.837 0-16-7.163-16-16v-80c0-8.837 7.163-16 16-16z"/>
  <path d="M392 376h80c8.837 0 16 7.163 16 16v80c0 8.837-7.163 16-16 16h-80c-8.837 0-16-7.163-16-16v-80c0-8.837 7.163-16 16-16z"/>
  <path d="M232 376h80c8.837 0 16 7.163 16 16v80c0 8.837-7.163 16-16 16h-80c-8.837 0-16-7.163-16-16v-80c0-8.837 7.163-16 16-16z"/>
  <path d="M48 536h104c8.837 0 16 7.163 16 16v80c0 8.837-7.163 16-16 16h-104v-112z"/>
  <path d="M552 536h80c8.837 0 16 7.163 16 16v80c0 8.837-7.163 16-16 16h-80c-8.837 0-16-7.163-16-16v-80c0-8.837 7.163-16 16-16z"/>
  <path d="M712 536h80c8.837 0 16 7.163 16 16v80c0 8.837-7.163 16-16 16h-80c-8.837 0-16-7.163-16-16v-80c0-8.837 7.163-16 16-16z"/>
  <path d="M872 536h104v112h-104c-8.837 0-16-7.163-16-16v-80c0-8.837 7.163-16 16-16z"/>
  <path d="M392 536h80c8.837 0 16 7.163 16 16v80c0 8.837-7.163 16-16 16h-80c-8.837 0-16-7.163-16-16v-80c0-8.837 7.163-16 16-16z"/>
  <path d="M232 536h80c8.837 0 16 7.163 16 16v80c0 8.837-7.163 16-16 16h-80c-8.837 0-16-7.163-16-16v-80c0-8.837 7.163-16 16-16z"/>
  <path d="M48 696h104c8.837 0 16 7.163 16 16v80c0 8.837-7.163 16-16 16h-104v-112z"/>
  <path d="M552 696h80c8.837 0 16 7.163 16 16v80c0 8.837-7.163 16-16 16h-80c-8.837 0-16-7.163-16-16v-80c0-8.837 7.163-16 16-16z"/>
  <path d="M712 696h80c8.837 0 16 7.163 16 16v80c0 8.837-7.163 16-16 16h-80c-8.837 0-16-7.163-16-16v-80c0-8.837 7.163-16 16-16z"/>
  <path d="M872 696h104v112h-104c-8.837 0-16-7.163-16-16v-80c0-8.837 7.163-16 16-16z"/>
  <path d="M392 696h80c8.837 0 16 7.163 16 16v80c0 8.837-7.163 16-16 16h-80c-8.837 0-16-7.163-16-16v-80c0-8.837 7.163-16 16-16z"/>
  <path d="M232 696h80c8.837 0 16 7.163 16 16v80c0 8.837-7.163 16-16 16h-80c-8.837 0-16-7.163-16-16v-80c0-8.837 7.163-16 16-16z"/>
  <path d="M48 856h104c8.837 0 16 7.163 16 16v104h-120v-120z"/>
  <path d="M552 856h80c8.837 0 16 7.163 16 16v104h-112v-104c0-8.837 7.163-16 16-16z"/>
  <path d="M712 856h80c8.837 0 16 7.163 16 16v104h-112v-104c0-8.837 7.163-16 16-16z"/>
  <path d="M872 856h104v120h-120v-104c0-8.837 7.163-16 16-16z"/>
  <path d="M392 856h80c8.837 0 16 7.163 16 16v104h-112v-104c0-8.837 7.163-16 16-16z"/>
  <path d="M232 856h80c8.837 0 16 7.163 16 16v104h-112v-104c0-8.837 7.163-16 16-16z"/>
</svg>