<svg xmlns="http://www.w3.org/2000/svg" viewBox="0 0 1024 1024">
  <path d="M48 48h128v112c0 8.837-7.163 16-16 16h-112v-128z"/>
  <path d="M848 48h128v128h-112c-8.837 0-16-7.163-16-16v-112z"/>
  <path d="M464 48h96v112c0 8.837-7.163 16-16 16h-64c-8.837 0-16-7.163-16-16v-112z"/>
  <path d="M592 48h96v112c0 8.837-7.163 16-16 16h-64c-8.837 0-16-7.163-16-16v-112z"/>
  <path d="M720 48h96v112c0 8.837-7.163 16-16 16h-64c-8.837 0-16-7.163-16-16v-112z"/>
  <path d="M336 48h96v112c0 8.837-7.163 16-16 16h-64c-8.837 0-16-7.163-16-16v-112z"/>
  <path d="M208 48h96v112c0 8.837-7.163 16-16 16h-64c-8.837 0-16-7.163-16-16v-112z"/>
  <path d="M48 208h112c8.837 0 16 7.163 16 16v64c0 8.837-7.163 16-16 16h-112v-96z"/>
  <path d="M864 208h112v96h-112c-8.837 0-16-7.163-16-16v-64c0-8.837 7.163-16 16-16z"/>
  <path d="M480 208h64c8.837 0 16 7.163 16 16v64c0 8.837-7.163 16-16 16h-64c-8.837 0-16-7.163-16-16v-64c0-8.837 7.163-16 16-16z"/>
  <path d="M608 208h64c8.837 0 16 7.163 16 16v64c0 8.837-7.163 16-16 16h-64c-8.837 0-16-7.163-16-16v-64c0-8.837 7.163-16 16-16z"/>
  <path d="M736 208h64c8.837 0 16 7.163 16 16v64c0 8.837-7.163 16-16 16h-64c-8.837 0-16-7.163-16-16v-64c0-8.837 7.163-16 16-16z"/>
  <path d="M352 208h64c8.837 0 16 7.163 16 16v64c0 8.837-7.163 16-16 16h-64c-8.837 0-16-7.163-16-16v-64c0-8.837 7.163-16 16-16z"/>
  <path d="M224 208h64c8.837 0 16 7.163 16 16v64c0 8.837-7.163 16-16 16h-64c-8.837 0-16-7.163-16-16v-64c0-8.837 7.163-16 16-16z"/>
  <path d="M48 336h112c8.837 0 16 7.163 16 16v64c0 8.837-7.163 16-16 16h-112v-96z"/>
  <path d="M864 336h112v96h-112c-8.837 0-16-7.163-16-16v-64c0-8.837 7.163-16 16-16z"/>
  <path d="M480 336h64c8.837 0 16 7.163 16 16v64c0 8.837-7.163 16-16 16h-64c-8.837 0-16-7.163-16-16v-64c0-8.837 7.163-16 16-16z"/>
  <path d="M608 336h64c8.837 0 16 7.163 16 16v64c0 8.837-7.163 16-16 16h-64c-8.837 0-16-7.163-16-16v-64c0-8.837 7.163-16 16-16z"/>
  <path d="M736 336h64c8.837 0 16 7.163 16 16v64c0 8.837-7.163 16-16 16h-64c-8.837 0-16-7.163-16-16v-64c0-8.837 7.163-16 16-16z"/>
  <path d="M352 336h64c8.837 0 16 7.163 16 16v64c0 8.837-7.163 16-16 16h-64c-8.837 0-16-7.163-16-16v-64c0-8.837 7.163-16 16-16z"/>
  <path d="M224 336h64c8.837 0 16 7.163 16 16v64c0 8.837-7.163 16-16 16h-64c-8.837 0-16-7.163-16-16v-64c0-8.837 7.163-16 16-16z"/>
  <path d="M48 464h112c8.837 0 16 7.163 16 16v64c0 8.837-7.163 16-16 16h-112v-96z"/>
  <path d="M864 464h112v96h-112c-8.837 0-16-7.163-16-16v-64c0-8.837 7.163-16 16-16z"/>
  <path d="M480 464h64c8.837 0 16 7.163 16 16v64c0 8.837-7.163 16-16 16h-64c-8.837 0-16-7.163-16-16v-64c0-8.837 7.163-16 16-16z"/>
  <path d="M608 464h64c8.837 0 16 7.163 16 16v64c0 8.837-7.163 16-16 16h-64c-8.837 0-16-7.163-16-16v-64c0-8.837 7.163-16 16-16z"/>
  <path d="M736 464h64c8.837 0 16 7.163 16 16v64c0 8.837-7.163 16-16 16h-64c-8.837 0-16-7.163-16-16v-64c0-8.837 7.163-16 16-16z"/>
  <path d="M352 464h64c8.837 0 16 7.163 16 16v64c0 8.837-7.163 16-16 16h-64c-8.837 0-16-7.163-16-16v-64c0-8.837 7.163-16 16-16z"/>
  <path d="M224 464h64c8.837 0 16 7.163 16 16v64c0 8.837-7.163 16-16 16h-64c-8.837 0-16-7.163-16-16v-64c0-8.837 7.163-16 16-16z"/>
  <path d="M48 592h110.52c8.837 0 16 7.163 16 16v64c0 8.837-7.163 16-16 16h-110.52v-96z"/>
  <path d="M864 592h112v96h-112c-8.837 0-16-7.163-16-16v-64c0-8.837 7.163-16 16-16z"/>
  <path d="M480 592h64c8.837 0 16 7.163 16 16v64c0 8.837-7.163 16-16 16h-64c-8.837 0-16-7.163-16-16v-64c0-8.837 7.163-16 16-16z"/>
  <path d="M608 592h64c8.837 0 16 7.163 16 16v64c0 8.837-7.163 16-16 16h-64c-8.837 0-16-7.163-16-16v-64c0-8.837 7.163-16 16-16z"/>
  <path d="M736 592h64c8.837 0 16 7.163 16 16v64c0 8.837-7.163 16-16 16h-64c-8.837 0-16-7.163-16-16v-64c0-8.837 7.163-16 16-16z"/>
  <path d="M352 592h64c8.837 0 16 7.163 16 16v64c0 8.837-7.163 16-16 16h-64c-8.837 0-16-7.163-16-16v-64c0-8.837 7.163-16 16-16z"/>
  <path d="M224 592h64c8.837 0 16 7.163 16 16v64c0 8.837-7.163 16-16 16h-64c-8.837 0-16-7.163-16-16v-64c0-8.837 7.163-16 16-16z"/>
  <path d="M48 720h112c8.837 0 16 7.163 16 16v64c0 8.837-7.163 16-16 16h-112v-96z"/>
  <path d="M864 720h112v96h-112c-8.837 0-16-7.163-16-16v-64c0-8.837 7.163-16 16-16z"/>
  <path d="M480 720h64c8.837 0 16 7.163 16 16v64c0 8.837-7.163 16-16 16h-64c-8.837 0-16-7.163-16-16v-64c0-8.837 7.163-16 16-16z"/>
  <path d="M608 720h64c8.837 0 16 7.163 16 16v64c0 8.837-7.163 16-16 16h-64c-8.837 0-16-7.163-16-16v-64c0-8.837 7.163-16 16-16z"/>
  <path d="M736 720h64c8.837 0 16 7.163 16 16v64c0 8.837-7.163 16-16 16h-64c-8.837 0-16-7.163-16-16v-64c0-8.837 7.163-16 16-16z"/>
  <path d="M352 720h64c8.837 0 16 7.163 16 16v64c0 8.837-7.163 16-16 16h-64c-8.837 0-16-7.163-16-16v-64c0-8.837 7.163-16 16-16z"/>
  <path d="M224 720h64c8.837 0 16 7.163 16 16v64c0 8.837-7.163 16-16 16h-64c-8.837 0-16-7.163-16-16v-64c0-8.837 7.163-16 16-16z"/>
  <path d="M48 848h112c8.837 0 16 7.163 16 16v112h-128v-128z"/>
  <path d="M864 848h112v128h-128v-112c0-8.837 7.163-16 16-16z"/>
  <path d="M480 848h64c8.837 0 16 7.163 16 16v112h-96v-112c0-8.837 7.163-16 16-16z"/>
  <path d="M608 848h64c8.837 0 16 7.163 16 16v112h-96v-112c0-8.837 7.163-16 16-16z"/>
  <path d="M736 848h64c8.837 0 16 7.163 16 16v112h-96v-112c0-8.837 7.163-16 16-16z"/>
  <path d="M352 848h64c8.837 0 16 7.163 16 16v112h-96v-112c0-8.837 7.163-16 16-16z"/>
  <path d="M224 848h64c8.837 0 16 7.163 16 16v112h-96v-112c0-8.837 7.163-16 16-16z"/>
</svg>