<svg xmlns="http://www.w3.org/2000/svg" viewBox="0 0 1024 1024">
  <path d="M240 172.48v-108.48h-176v176h40c15.11-11.68 32.116-22.811 49.972-32.583 25.145-12.759 52.935-24.248 81.654-33.691z"/>
  <path d="M920 240h40v-176h-176v108.48c33.093 10.689 60.883 22.178 87.573 35.54 16.311 9.169 33.317 20.3 49.334 32.652z"/>
  <path d="M720 64h-176v80c62.72 0 118.56 1.48 176 12.36z"/>
  <path d="M480 64h-176v92.36c57.44-10.84 113.28-12 176-12.36z"/>
  <path d="M64 621.72v98.28h160c8.837 0 16-7.163 16-16v-6.56c-7.68 1.88-15.36 3.56-23.12 4.84-62.8 10.48-115.28-27.96-152.88-80.56z"/>
  <path d="M807.12 702.28c-7.72-1.28-15.44-2.96-23.12-4.84v6.56c0 8.837 7.163 16 16 16h160v-98.28c-37.6 52.6-90.080 91.040-152.88 80.56z"/>
  <path d="M544 704c0 8.837 7.163 16 16 16h144c8.837 0 16-7.163 16-16v-27.48c-59.080-22.96-117.24-52.24-176-59.52z"/>
  <path d="M304 704c0 8.837 7.163 16 16 16h144c8.837 0 16-7.163 16-16v-87.040c-58.76 7.28-116.92 36.56-176 59.52z"/>
  <path d="M224 784h-160v176h176v-160c0-8.837-7.163-16-16-16z"/>
  <path d="M784 800v160h176v-176h-160c-8.837 0-16 7.163-16 16z"/>
  <path d="M704 784h-144c-8.837 0-16 7.163-16 16v160h176v-160c0-8.837-7.163-16-16-16z"/>
  <path d="M464 784h-144c-8.837 0-16 7.163-16 16v160h176v-160c0-8.837-7.163-16-16-16z"/>
  <path d="M510.48 566c-84.52 0-167.16 55.4-253.6 68.32-118.12 17.68-194.6-141.88-189.68-208 4.2-56.68 26.56-127.56 136.2-181.24 112.28-49.080 196.28-49.080 307.080-49.080h3.040c110.8 0 194.8 0 307.040 49 109.64 53.72 132 124.56 136.2 181.24 4.92 66.28-71.56 225.84-189.68 208-86.44-12.92-172-68.32-256.6-68.32z"/>
</svg>