<svg xmlns="http://www.w3.org/2000/svg" viewBox="0 0 1024 1024">
  <path d="M880 767.56c50.077-71.314 80.028-159.929 80.028-255.54s-29.951-184.226-80.982-256.975c-4.061-58.601-51.596-106.094-111.203-111.015-71.728-50.047-160.292-79.96-255.843-79.96s-184.115 29.913-256.838 80.886c-58.612 3.995-106.146 51.488-111.132 111.077-50.107 71.762-80.058 160.377-80.058 255.987s29.951 184.226 80.982 256.975c4.078 58.572 51.585 106.038 111.162 110.975 71.729 50.047 160.293 79.961 255.844 79.961s184.115-29.913 256.838-80.886c58.617-3.974 106.165-51.453 111.172-111.036zM757.56 184.8c0.012-0 0.026-0 0.040-0 45.066 0 81.6 36.534 81.6 81.6s-36.534 81.6-81.6 81.6c-45.066 0-81.6-36.534-81.6-81.6 0-0.014 0-0.028 0-0.042 0.023-45.033 36.525-81.535 81.558-81.558zM676 512c-0-45.066 36.534-81.6 81.6-81.6s81.6 36.534 81.6 81.6c0 45.066-36.534 81.6-81.6 81.6s-81.6-36.534-81.6-81.6zM676 757.64c-0-45.066 36.534-81.6 81.6-81.6s81.6 36.534 81.6 81.6c0 45.066-36.534 81.6-81.6 81.6-45.052 0-81.577-36.511-81.6-81.558zM266.4 839.28c-45.066 0-81.6-36.534-81.6-81.6s36.534-81.6 81.6-81.6c45.066 0 81.6 36.534 81.6 81.6s-36.534 81.6-81.6 81.6zM348 266.36c0 0.012 0 0.026 0 0.040 0 45.066-36.534 81.6-81.6 81.6s-81.6-36.534-81.6-81.6c0-45.066 36.534-81.6 81.6-81.6 45.052 0 81.577 36.511 81.6 81.558zM348 512c0 45.066-36.534 81.6-81.6 81.6s-81.6-36.534-81.6-81.6c0-45.066 36.534-81.6 81.6-81.6s81.6 36.534 81.6 81.6zM512 839.24c-45.066 0-81.6-36.534-81.6-81.6s36.534-81.6 81.6-81.6c45.066 0 81.6 36.534 81.6 81.6 0 0.012 0 0.026 0 0.040 0 45.066-36.534 81.6-81.6 81.6zM512 593.6c-45.066 0-81.6-36.534-81.6-81.6s36.534-81.6 81.6-81.6c45.066 0 81.6 36.534 81.6 81.6s-36.534 81.6-81.6 81.6zM512 348c-45.066 0-81.6-36.534-81.6-81.6s36.534-81.6 81.6-81.6c45.066 0 81.6 36.534 81.6 81.6s-36.534 81.6-81.6 81.6z"/>
</svg>