<svg xmlns="http://www.w3.org/2000/svg" viewBox="0 0 1024 1024">
<path d="M699.44 201.6l-187.44-136.16-188.16 136.68 187.44 136.2 188.16-136.72z"/>
<path d="M471.76 367l-187.44-136.16-9.84 7.12 71.6 220.36 125.68-91.32z"/>
<path d="M48 402.52l71.6 220.36 186.96-135.84-71.56-220.36-187 135.84z"/>
<path d="M661.36 504.76l-150.080-109.040-150.12 109.040 57.36 176.44h185.52l57.32-176.44z"/>
<path d="M505.2 948h12.16l71.6-220.36h-155.36l71.6 220.36z"/>
<path d="M321.68 533.48l-187 135.84 3.88 11.88h231.12l-48-147.72z"/>
<path d="M225.24 948h231.12l-71.6-220.36h-231.12l71.6 220.36z"/>
<path d="M748.32 237.12l-9.36-6.8-188.16 136.68 125.68 91.32 71.84-221.2z"/>
<path d="M889.040 670.16l-188.16-136.68-48 147.72h232.56l3.6-11.040z"/>
<path d="M566.2 948h232.56l71.6-220.36h-232.56l-71.6 220.36z"/>
<path d="M976 402.52l-188.16-136.68-71.88 221.2 188.16 136.68 71.88-221.2z"/>
</svg>
