<svg xmlns="http://www.w3.org/2000/svg" viewBox="0 0 1024 1024">
<path d="M111.080 151v-28.32c-0-0.005-0-0.012-0-0.018 0-23.489 10.567-44.51 27.206-58.568l-74.286-0.093v90.36c8.474-3.565 18.325-5.636 28.659-5.636 6.543 0 12.891 0.83 18.946 2.391z"/>
<path d="M704 64v224c0 17.673 14.327 32 32 32h224v-256z"/>
<path d="M454.96 134.36v179.080c18.367-11.353 40.635-18.080 64.475-18.080 0.072 0 0.144 0 0.216 0 16.485 0.057 30.623 10.090 36.69 24.378l51.659 0.262c17.673 0 32-14.327 32-32v-224h-231c27.287 12.194 45.959 39.096 45.96 70.36z"/>
<path d="M704 416v192c0 17.673 14.327 32 32 32h224v-256h-224c-17.673 0-32 14.327-32 32z"/>
<path d="M608 640c17.673 0 32-14.327 32-32v-192c0-17.673-14.327-32-32-32h-48.52v256z"/>
<path d="M64 904.28v55.72h28.84v-20.48c-10.269-10.597-19.745-22.105-28.249-34.341z"/>
<path d="M704 736v224h256v-256h-224c-17.673 0-32 14.327-32 32z"/>
<path d="M559.48 750.24c0 0.060 0 0.132 0 0.203 0 84.219-38.406 159.468-98.659 209.188l179.179 0.369v-224c0-17.673-14.327-32-32-32h-48.52v46.24z"/>
<path d="M508 341.72c-44.823 0-81.16 36.337-81.16 81.16v115.16c-5.191-3.092-11.381-6.226-17.784-8.959l-1.056-380.201c-0-19.562-15.858-35.42-35.42-35.42s-35.42 15.858-35.42 35.42v367.12h-20v-416.6c0-19.562-15.858-35.42-35.42-35.42s-35.42 15.858-35.42 35.42l0 416.6h-20v-380c0-19.562-15.858-35.42-35.42-35.42s-35.42 15.858-35.42 35.42v380h-20v-268.96c0-19.551-15.849-35.4-35.4-35.4v0c-0.202-0.004-0.441-0.007-0.68-0.007-19.551 0-35.4 15.849-35.4 35.4 0 0.002 0 0.005 0 0.007l-0 492c0 0.4 0 0.76 0 1.12 0.739 72.89 36.563 137.26 91.363 177.119l0.637 42.721h216.4v-17.48c80.348-34.573 135.587-113.054 135.6-204.438l0-0.002v-396.36z"/>
</svg>

