<svg xmlns="http://www.w3.org/2000/svg" viewBox="0 0 1024 1024">
  <path d="M153.28 719.76l123.4 213.76c1.348 2.295 2.144 5.054 2.144 8 0 8.831-7.154 15.991-15.983 16l-246.841 0c-8.829-0.009-15.984-7.169-15.984-16 0-2.946 0.796-5.705 2.184-8.076l123.359-213.685c2.817-4.82 7.966-8.006 13.86-8.006s11.043 3.186 13.819 7.931z"/>
  <path d="M525.84 719.76l123.4 213.76c1.348 2.295 2.144 5.054 2.144 8 0 8.831-7.154 15.991-15.983 16l-246.801 0c-8.829-0.009-15.984-7.169-15.984-16 0-2.946 0.796-5.705 2.184-8.076l123.359-213.685c2.822-4.8 7.96-7.972 13.84-7.972s11.018 3.171 13.799 7.897z"/>
  <path d="M898.44 719.76l123.4 213.76c1.348 2.295 2.144 5.054 2.144 8 0 8.831-7.154 15.991-15.983 16l-246.841 0c-8.829-0.009-15.984-7.169-15.984-16 0-2.946 0.796-5.705 2.184-8.076l123.359-213.685c2.817-4.82 7.966-8.006 13.86-8.006s11.043 3.186 13.819 7.931z"/>
  <path d="M339.56 397.12l123.4 213.76c1.348 2.295 2.144 5.054 2.144 8 0 8.831-7.154 15.991-15.983 16l-246.841 0c-8.829-0.009-15.984-7.169-15.984-16 0-2.946 0.796-5.705 2.184-8.076l123.519-213.685c2.835-4.743 7.942-7.869 13.78-7.869s10.945 3.126 13.74 7.796z"/>
  <path d="M712 397.12l123.4 213.76c1.348 2.295 2.144 5.054 2.144 8 0 8.831-7.154 15.991-15.983 16l-246.681 0c-8.829-0.009-15.984-7.169-15.984-16 0-2.946 0.796-5.705 2.184-8.076l123.359-213.685c2.835-4.743 7.942-7.869 13.78-7.869s10.945 3.126 13.74 7.796z"/>
  <path d="M525.84 74.48l123.4 213.76c1.348 2.295 2.144 5.054 2.144 8 0 8.831-7.154 15.991-15.983 16l-246.801 0c-8.829-0.009-15.984-7.169-15.984-16 0-2.946 0.796-5.705 2.184-8.076l123.359-213.685c2.822-4.8 7.96-7.972 13.84-7.972s11.018 3.171 13.799 7.897z"/>
  <path d="M498.16 590.56l-123.44-213.72c-1.348-2.295-2.144-5.054-2.144-8 0-8.831 7.154-15.991 15.983-16l246.841-0c8.829 0.009 15.984 7.169 15.984 16 0 2.946-0.796 5.705-2.184 8.076l-123.359 213.685c-2.824 4.789-7.957 7.952-13.828 7.952-5.888 0-11.033-3.18-13.811-7.916z"/>
  <path d="M312 913.24l-123.56-213.76c-1.348-2.295-2.144-5.054-2.144-8 0-8.831 7.154-15.991 15.983-16l246.841-0c8.829 0.009 15.984 7.169 15.984 16 0 2.946-0.796 5.705-2.184 8.076l-123.359 213.685c-2.835 4.743-7.942 7.869-13.78 7.869s-10.945-3.126-13.74-7.796z"/>
  <path d="M684.44 913.24l-123.4-213.76c-1.348-2.295-2.144-5.054-2.144-8 0-8.831 7.154-15.991 15.983-16l246.841-0c8.829 0.009 15.984 7.169 15.984 16 0 2.946-0.796 5.705-2.184 8.076l-123.519 213.685c-2.835 4.743-7.942 7.869-13.78 7.869s-10.945-3.126-13.74-7.796z"/>
</svg>