<svg xmlns="http://www.w3.org/2000/svg" viewBox="0 0 1024 1024">
  <path d="M139.324 500.686l361.36-361.36c6.248-6.248 16.379-6.248 22.627-0l361.36 361.36c6.248 6.248 6.248 16.379 0 22.627l-361.36 361.36c-6.248 6.248-16.379 6.248-22.627 0l-361.36-361.36c-6.248-6.248-6.248-16.379 0-22.627z"/>
  <path d="M400 96h-304v304c0 4.418 3.582 8 8 8l304-304c0-4.418-3.582-8-8-8z"/>
  <path d="M400 912l-296-296c-4.418 0-8 3.582-8 8v304h304c4.418 0 8-3.582 8-8z"/>
  <path d="M920 616l-304 304c0 4.418 3.582 8 8 8h304v-304c0-4.418-3.582-8-8-8z"/>
  <path d="M624 96c-4.418 0-8 3.582-8 8l304 304c4.418 0 8-3.582 8-8v-304z"/>
</svg>
