<svg xmlns="http://www.w3.org/2000/svg" viewBox="0 0 1024 1024">
  <path d="M928 427.76l-314.36 84.24 314.36 84.24v-168.48z"/>
<path d="M427.76 928h168.48l-84.24-314.36-84.24 314.36z"/>
<path d="M596.24 96h-168.48l84.24 314.36 84.24-314.36z"/>
<path d="M96 427.76v168.48l314.36-84.24-314.36-84.24z"/>
<path d="M549.2 549.2l101.48 378.8h277.32v-277.32l-378.8-101.48z"/>
<path d="M650.68 96l-101.48 378.8 378.8-101.48v-277.32h-277.32z"/>
<path d="M373.32 96h-277.32v277.32l378.8 101.48-101.48-378.8z"/>
<path d="M96 650.68v277.32h277.32l101.48-378.8-378.8 101.48z"/>
</svg>
